<svg xmlns="http://www.w3.org/2000/svg" width="139" height="64" fill="#faf2e0" xmlns:v="https://vecta.io/nano"><path d="M.007 37.988V.602h7.724v16.159h14.452V.602h7.725v37.386h-7.725V23.536H7.731v14.453H.007zm81.091 0V.602h14.253c2.558 0 4.818.452 6.778 1.355 1.993.903 3.555 2.242 4.684 4.015s1.695 3.964 1.695 6.574c0 2.543-.582 4.7-1.745 6.474-1.129 1.773-2.691 3.128-4.684 4.065-1.96.903-4.203 1.355-6.728 1.355h-6.528v13.549h-7.724zm7.724-20.324H95.4c1.096 0 2.043-.217 2.841-.652s1.412-1.037 1.843-1.807c.466-.769.698-1.656.698-2.66 0-1.037-.232-1.94-.698-2.71a4.58 4.58 0 0 0-1.843-1.807c-.797-.435-1.744-.652-2.841-.652h-6.578v10.287zm24.64 20.324V.602h24.968v6.775h-17.244v8.481h16.247v6.775h-16.247v8.581h17.244v6.775h-24.968zm-46.149-5.009c-.559 0-.945-.512-1.118-.732a1.39 1.39 0 0 0-.142-.173c-.519.039-1.023-.031-1.519-.102s-.96-.142-1.425-.102c-.724.047-1.11-.535-1.322-.85l-.102-.157a.98.98 0 0 1-.583-.252c-.464-.417-.449-1.11-.433-1.85-.032 0-.063-.016-.087-.024-.559-.189-.701-.74-.803-1.141l-.055-.22h-.126l-.291-.331a.93.93 0 0 1-.126-.228c-.567.559-.756.677-1.118.646l-.37-.032-.22-.307c-.134-.189-.236-.425-.338-.669-.11-.252-.276-.63-.417-.748-.213-.181-.37-.394-.488-.559-.087-.118-.173-.236-.236-.283-.11-.079-.197-.087-.425-.11-.252-.024-.59-.055-.976-.252l-.26-.142c-.126-.071-.307-.173-.378-.181a3.88 3.88 0 0 0-.606.079l-.937.118c-.441.031-.858.197-1.291.362-.567.22-1.212.464-2.007.464-.157.031-.567.48-.787.716-.535.59-1.197 1.315-2.102 1.189-.504-.071-.952.016-1.433.11-.315.063-.645.126-.976.134a3.12 3.12 0 0 0-.354.457c-.37.504-.984 1.346-1.873.945-.173-.079-.48-.095-.803-.102-.701-.024-1.661-.055-2.306-.937a1.01 1.01 0 0 1-.197-.819c.071-.331.283-.527.472-.646-.039-.275 0-.527.032-.724.016-.102.039-.213.032-.331 0-.118-.118-.378-.197-.551l-.087-.197c-.024-.063-.102-.165-.173-.26-.134-.189-.307-.417-.425-.716-.087-.228-.11-.441-.134-.63a1.2 1.2 0 0 0-.055-.299c-.102-.181-.252-.386-.417-.598l-.52-.74c-.126-.22-.165-.441-.197-.583 0-.031-.008-.071-.024-.102-.102-.149-.283-.307-.48-.48-.291-.252-.622-.543-.803-.992-.134-.331-.079-.677.15-.929a.86.86 0 0 1 .394-.252c-.244-.582-.354-1.212-.354-1.511l-.024-.504c-.039-.787-.055-1.377.142-1.826.283-.63.795-.708 1.015-.74.173-.102.299-.213.425-.323.425-.37.905-.795 1.566-1.118.252-.118.512-.158.724-.189.102-.016.228-.031.283-.055l3.322-1.519c.055-.047.189-.283.26-.425.102-.189.22-.409.378-.606-.22-.512-.181-.905.102-1.181.024-.228.087-.661.52-.96.252-.173.496-.197.724-.134a.84.84 0 0 1 .276-.401.87.87 0 0 1 .472-.205.83.83 0 0 1 .276-.724c.535-.488 1.157-.905 1.763-1.315l1.047-.732c.708-.535 1.346.173 1.771.645l.205.228c.087-.008.165 0 .244 0a1.39 1.39 0 0 1 .15-.307c.11-.157.22-.338.331-.527.291-.488.653-1.102 1.228-1.598.26-.228.551-.323.819-.346V1.47l-.079-.394.299-.354c.433-.464 1.047-.276 1.645-.094.268.079.669.205.842.197.433-.024.787.157 1 .26.252.039.48.142.661.228.008 0 .024.008.031.016a1.03 1.03 0 0 1 .669-.22c.338.016.575.087.771.142.11.031.228.063.386.079a1.03 1.03 0 0 1 .889.645c.22.567-.094 1.204-.433 1.582-.126.142-.291.236-.457.331-.008 0-.024.016-.039.024 0 .362-.22.701-.378.929.417.299.819.638 1.204.968.913.771 1.771 1.496 2.747 1.747.291-.157.527-1.196.701-3.07l.055-.551c0-.039.63-3.786 1.858-3.928a.87.87 0 0 1 .921.598l.181.543c.189.575.417 1.283.834 2.165.118.252.126.543.126.874.079.016.165.039.252.071.417.157.677.52.889.811.039.063.087.118.126.165.331.409.307.976.291 1.511v.606c.346.449.417 1.086.496 1.708l.118.771a.97.97 0 0 1 .771.244c.079.071.181.149.291.236.417.323.889.693 1.126 1.11a1.11 1.11 0 0 1 .142.716c.236.299.37.685.496 1.063l.095.268c.299.031.519.189.614.252.457.331.535.858.59 1.204l.047.252.527.653.858 1.102c.645.968.519 2.173.433 2.897l-.031.331c0 2.503-.858 4.29-1.7 5.715-.189.315-.402.496-.559.63a1.45 1.45 0 0 0-.22.213c-.157.205-.228.425-.307.716-.142.48-.315 1.078-.984 1.574-.362.276-.527.803-.559 1.763-.008.283-.134.535-.338.716-.37.307-.826.236-1.157.189l-.157-.024c-.315.181-.669.142-.897.11-.024 0-.055 0-.079-.008-.11.087-.228.205-.354.323-.268.268-.575.567-.984.764a1.02 1.02 0 0 1-.457.11l-.016.031zm-1.118-2.503c.582 0 .968.449 1.197.74l.26-.244c.236-.228.48-.464.779-.638.323-.181.669-.142.921-.11h.047c.26-.142.551-.15.803-.126.094-.842.354-1.74 1.149-2.33.236-.173.299-.362.417-.756.102-.354.236-.795.583-1.236.165-.205.323-.338.449-.449.118-.102.173-.15.22-.228.732-1.236 1.48-2.786 1.48-4.912a4.99 4.99 0 0 1 .039-.504c.063-.543.15-1.354-.181-1.842-.142-.213-.48-.622-.772-.992l-.598-.756c-.189-.26-.252-.551-.291-.803l-.063.016-.354-.205c-.449-.291-.638-.834-.819-1.354-.071-.197-.181-.52-.252-.606-.205-.15-.449-.472-.354-1.016-.157-.165-.472-.409-.638-.543a.78.78 0 0 1-.126-.102c-.409.087-.732 0-.992-.252-.488-.48-.575-1.228-.661-1.952-.039-.299-.094-.803-.181-.937-.378-.433-.346-1.071-.323-1.629v-.535c-.039-.047-.071-.102-.11-.157l-.173-.228c-.519.031-.866-.134-1.078-.488-.181-.307-.189-.677-.189-1.071v-.283l-.465-1.094c-.15.488-.276.984-.315 1.283l-.055.527c-.181 1.921-.401 3.558-1.362 4.227a1.53 1.53 0 0 1-1.307.22c-1.322-.346-2.361-1.22-3.361-2.07L57.992 5.86a.98.98 0 0 1-.441-.63c-.094-.48.197-.874.425-1.189l.095-.126a.85.85 0 0 1 0-.401c.047-.244.173-.425.331-.575a.88.88 0 0 1-.362.055c-.315-.008-.583-.134-.803-.236-.071-.031-.181-.087-.228-.094-.165 0-.331-.079-.464-.15-.063-.031-.189-.094-.236-.102-.134 0-.283 0-.425-.024a1.04 1.04 0 0 1-.559.622c-.472.22-.945.15-1.283.094-.118-.016-.291-.047-.346-.031-.315.299-.582.748-.842 1.181l-.134.228c.15.15.299.354.323.653a.95.95 0 0 1-.299.748c-.606.606-1.354.228-1.677.063-.039-.016-.087-.047-.126-.063-.622.252-1.165-.362-1.543-.779-.032-.031-.063-.071-.102-.118l-.669.457-1.236.882c.197.464.457 1.086-.047 1.527-.22.189-.464.236-.701.213.016.307-.055.598-.338.819-.37.283-.74.213-1.039.039.157.582-.094.897-.362 1.063-.063.047-.189.283-.268.425-.197.37-.449.826-.929 1.078-1.078.559-2.275 1.102-3.463 1.582-.228.087-.456.126-.638.15l-.26.047c-.472.228-.834.551-1.22.89l-.425.362a1.39 1.39 0 0 1-.638.299c-.024.252 0 .693.016.953l.024.59c0 .142.11.693.323 1.102.063.118.157.236.252.346.212.26.504.614.417 1.102l-.063.346-.252.181a3.31 3.31 0 0 1 .197.268c.157.236.197.472.228.63 0 .039.008.071.024.11a4.79 4.79 0 0 0 .386.535c.197.252.394.512.551.795.173.315.213.646.236.882a1.38 1.38 0 0 0 .039.244c.039.102.126.22.221.346.118.165.26.354.354.59l.071.173c.142.315.315.709.331 1.134.008.236-.024.449-.047.622a2.12 2.12 0 0 0-.032.252c.087.181.22.598-.055 1.015.15.024.346.032.582.039.346.008.724.024 1.094.134l.244-.323c.354-.488.803-1.102 1.503-1.102h.032c.213 0 .472-.047.771-.11.527-.102 1.189-.236 1.96-.126.126-.039.496-.449.716-.693.527-.583 1.118-1.236 1.952-1.236h.055c.472 0 .889-.165 1.378-.354.496-.197 1.063-.417 1.732-.472l.811-.102a6.47 6.47 0 0 1 .795-.094c.488-.008.882.197 1.204.37l.205.11c.118.063.228.071.425.095.299.031.716.071 1.173.386.283.197.465.449.614.645l.228.283c.283.244.488.567.645.889l.26-.268c.937-.953 1.063-1.086 1.472-1.094h.386l.283.331c.307.401.181.905.024 1.535l-.047.197c.283.26.417.645.496.929a1.04 1.04 0 0 1 .433.095c.582.291.567.96.551 1.661v.559c.425.149.693.551.858.795l.102.142c.559-.024 1.094.055 1.566.126.464.063.905.134 1.267.079.055-.008.11-.008.165-.008l-.024.024z"/><path d="M67.155 38.261c-.764 0-1.031-.567-1.118-.748-.48-.535-.693-1.126-.693-1.96 0-.118-.134-.417-.212-.59-.205-.449-.433-.96-.142-1.448.094-.165.338-.441.826-.48.433-.024.842.189 1.283.425.157.087.433.228.527.252.055 0 .268-.087.409-.142.212-.087.441-.157.653-.157.268.008.512.118.677.307.299.331.268.716.236 1.094l-.024.488c0 .795-.417 1.33-.724 1.724l-.118.15-.118.173c-.236.346-.622.921-1.464.921v-.008zm-.299-3.157c.031.15.055.299.055.449 0 .535.134.724.307.913.016.024.031.039.055.063.016-.024.031-.039.039-.063l.165-.236.134-.173c.252-.323.394-.52.394-.756v-.063c-.354.079-.756.039-1.141-.126l-.008-.008zm71.567 13.654v15h-4.913c-1.517 0-2.839-.309-3.967-.926a6.46 6.46 0 0 1-2.617-2.617c-.617-1.114-.926-2.43-.926-3.946 0-1.503.309-2.819.926-3.946s1.49-2.007 2.617-2.638c1.128-.617 2.45-.926 3.967-.926h4.913zm-1.974 1.812h-2.959c-1.114 0-2.074.235-2.879.705-.819.47-1.45 1.128-1.893 1.973-.443.859-.665 1.866-.665 3.02 0 1.168.229 2.174.685 3.02a4.66 4.66 0 0 0 1.893 1.953c.805.47 1.758.705 2.859.705h2.959V50.571zm-20.118-2.053c1.061 0 2.054.188 2.98.564a7.54 7.54 0 0 1 2.436 1.631 7.64 7.64 0 0 1 1.611 2.456c.389.953.584 1.987.584 3.101 0 1.127-.195 2.161-.584 3.101a7.64 7.64 0 0 1-1.611 2.456 7.33 7.33 0 0 1-2.416 1.611 7.9 7.9 0 0 1-3 .564c-1.074 0-2.067-.195-2.98-.584a7.07 7.07 0 0 1-2.416-1.611c-.698-.685-1.241-1.497-1.631-2.436-.402-.94-.604-1.973-.604-3.101 0-1.114.202-2.148.604-3.101a7.5 7.5 0 0 1 1.631-2.456 7.32 7.32 0 0 1 2.416-1.631c.913-.376 1.906-.564 2.98-.564zm0 1.832c-.832 0-1.59.148-2.275.443a5.42 5.42 0 0 0-1.772 1.268c-.51.55-.899 1.181-1.168 1.893a6.33 6.33 0 0 0-.422 2.316c0 .819.14 1.584.422 2.295.269.711.658 1.335 1.168 1.872a5.07 5.07 0 0 0 1.772 1.269c.685.309 1.443.463 2.275.463.819 0 1.571-.154 2.255-.463a5.25 5.25 0 0 0 1.792-1.269 5.96 5.96 0 0 0 1.168-1.872c.282-.711.423-1.477.423-2.295a6.33 6.33 0 0 0-.423-2.315c-.282-.711-.671-1.342-1.168-1.893a5.63 5.63 0 0 0-1.792-1.268c-.684-.295-1.436-.443-2.255-.443zm-12.874-1.591l4.208 15h-2.073l-3.524-13.208h.483l-3.664 13.208h-2.074L93.169 50.55h.503l-3.544 13.208h-2.074l4.208-15h2.195l3.664 13.148h-.523l3.665-13.148h2.194zm-17.297 0v15h-1.651l-8.618-12.121.745-.081v12.201h-1.993v-15h1.651l8.577 12.201-.685.081V48.758h1.973zm-24.57-.241c1.087 0 2.054.228 2.899.685a5.04 5.04 0 0 1 1.953 1.872c.456.805.685 1.718.685 2.738v9.946h-1.993v-9.906c0-.685-.148-1.295-.443-1.832a3.32 3.32 0 0 0-1.248-1.228c-.537-.295-1.154-.443-1.852-.443s-1.309.148-1.832.443a3.14 3.14 0 0 0-1.248 1.228c-.309.537-.463 1.148-.463 1.832v9.906h-1.993v-9.946c0-1.02.235-1.933.705-2.738.456-.792 1.101-1.416 1.933-1.872s1.799-.685 2.899-.685zm-8.779.241v15H51.16l-8.617-12.121.745-.081v12.201h-1.993v-15h1.651l8.577 12.201-.685.081V48.758h1.973zm-14.865 0v15h-4.913c-1.517 0-2.839-.309-3.966-.926s-2-1.49-2.617-2.617c-.617-1.114-.926-2.43-.926-3.946 0-1.503.309-2.819.926-3.946s1.49-2.007 2.617-2.638c1.127-.617 2.45-.926 3.966-.926h4.913zm-1.973 1.812h-2.96c-1.114 0-2.074.235-2.879.705a4.79 4.79 0 0 0-1.893 1.973c-.443.859-.664 1.866-.664 3.02 0 1.168.228 2.174.684 3.02a4.66 4.66 0 0 0 1.893 1.953c.805.47 1.758.705 2.859.705h2.96V50.571zm-12.951-1.812v15h-9.765v-1.812h7.792v-4.752H13.66v-1.812h7.389V50.57h-7.792v-1.812h9.765zm-12.21 0v15H5.517c-.993 0-1.866-.188-2.617-.564s-1.336-.913-1.752-1.611c-.43-.698-.644-1.517-.644-2.456 0-1.06.268-1.96.805-2.698s1.262-1.268 2.175-1.591L0 48.758h2.295l3.664 6.503-1.309-.765h4.188v-5.738h1.973zm-1.973 7.55H5.456c-.591 0-1.107.114-1.55.342s-.785.557-1.027.987c-.255.43-.383.926-.383 1.49 0 .577.128 1.074.383 1.49a2.43 2.43 0 0 0 1.027.986c.443.228.96.342 1.55.342h3.383v-5.638z"/></svg>