<svg xmlns="http://www.w3.org/2000/svg" width="175" height="56" fill="#000" xmlns:v="https://vecta.io/nano"><path d="M14.826 45.851c.439 0 .878-.22 1.229-.629a1.29 1.29 0 0 0 .307-.805c0-.395-.205-.746-.629-.922-.468-.205-.6-.512-.703-.937-.454-1.946-.644-3.908-.644-5.898l.029-1.215.454-6.601 1.068-8.43c.073-.439.249-.615.688-.659.556-.059 1.127-.161 1.668-.278a.64.64 0 0 0 .556-.703v-.088c-.044-.439-.337-.629-.717-.673h-.044c-.146 0-.293.044-.439.044h-.102c-.263 0-.512.073-.79.073a.95.95 0 0 1-.395-.073l1.478-7.04 2.093-8.328c.073-.249.132-.512.132-.761l-.015-.205C19.963.964 19.436.437 18.719.379l-.176-.015c-.659 0-1.156.395-1.346 1.098-.102.337-.132.703-.22 1.054-1.244 5.049-2.122 10.157-2.839 15.309-.059.424-.161.659-.673.746l-7.757 1.361c-.117.015-.234.059-.366.059-.117 0-.22-.029-.337-.146.015-.22.015-.454.044-.688.263-2.151.585-4.317.966-6.454.498-2.854 1.229-5.664 1.771-8.503.102-.542.249-1.068.249-1.61v-.146c-.044-.717-.498-1.229-1.156-1.288h-.088c-.498 0-.951.366-1.127.981-.088.351-.132.702-.22 1.054C4.259 8.34 3.469 13.565 3.03 18.834c-.132 1.61-.102 1.61-1.683 1.771-.205.015-.41.044-.6.117A1.15 1.15 0 0 0 0 21.79l.015.132c.059.629.483 1.068 1.156 1.171l.307.029c.366 0 .717-.088 1.127-.088h.073v.161c0 .951-.117 1.815-.117 2.693l-.205 10.933v1.244c0 .454.044.907.176 1.332a1.08 1.08 0 0 0 1.024.732c.22 0 .454-.073.659-.234.395-.278.644-.864.644-1.405 0-.249-.059-.483-.176-.673a1.56 1.56 0 0 1-.205-.761l-.176-6.63c0-.512.015-1.01.029-1.522.073-1.903.22-3.805.307-5.722.029-.41.176-.629.6-.732l7.815-1.932c.19-.044.337-.073.424-.073.19 0 .249.088.249.307l-.029.351a236.61 236.61 0 0 0-.966 10.157l-.483 6.791a21.23 21.23 0 0 0-.044 1.376c0 1.346.146 2.693.527 4.025.19.673.425 1.317.907 1.829.351.381.776.571 1.185.571zm6.609-13.435c-.483-.585-.834-1.815-.907-3.103l-.015-.483a8.77 8.77 0 0 1 .132-1.522c.571.732 1.156 1.215 2.078 1.215h.161c-.337 1.405-.776 2.664-1.449 3.893zm1.244-4.742h-.044c-.234 0-.439-.102-.629-.278-.322-.322-.498-.732-.6-1.171-.117-.439-.176-.878-.205-1.317-.015-.132-.015-.278-.015-.41 0-.907.176-1.786.512-2.664a2.78 2.78 0 0 1 .293-.542c.132-.19.263-.293.381-.307.146 0 .278.117.424.351.381.615.571 1.288.615 1.99v.483l.015.498c0 .907-.102 1.8-.234 2.693-.029.249-.029.571-.366.659l-.146.015zm-1.244 7.362c.512-.029 1.039-.263 1.493-.688.351-.337.629-.746.834-1.156a8.19 8.19 0 0 0 .644-1.756c.439-1.844.673-3.703.673-5.576l-.029-1.244a23.27 23.27 0 0 0-.249-2.239c-.146-.79-.424-1.551-1.01-2.151-.41-.424-.907-.644-1.405-.644h-.088c-.351.029-.688.161-1.01.41-.6.498-1.039 1.185-1.727 1.61-.19.102-.263.38-.366.615-.278.585-.468 1.215-.585 1.859-.22 1.054-.307 2.122-.307 3.205l.029 1.098.044.6.059 1.244.058.615c.161 1.068.322 2.122.922 3.059.468.746 1.171 1.142 1.903 1.142h.117zm7.925 20.738c.454 0 .878-.307 1.098-.761a1.29 1.29 0 0 0 .132-.556c0-.161-.029-.322-.059-.498l-.761-5.854-.029-1.8a51.18 51.18 0 0 1 2.81-16.758c.673-1.947 1.639-4.449 2.722-6.205.351-.585.717-1.171 1.346-1.639.219.512.322.834.322 1.215 0 .205-.044.659-.088.922-.234 1.244-.688 2.62-1.024 3.732-.176.556-.454.995-.907 1.376-1.347 1.142-2.415 2.488-3.132 4.098-.205.468-.395.937-.439 1.449l-.015.307c0 .776.293 1.332.878 1.581a1.76 1.76 0 0 0 .659.132c.483 0 .922-.22 1.303-.6.468-.439.834-.937 1.185-1.464.981-1.478 1.698-3.073 2.298-4.742.102-.293.161-.629.439-.863 1.186-.995 2.254-1.947 3.791-2.415.278-.088.571-.176.834-.307.234-.146.351-.351.351-.585a.83.83 0 0 0-.044-.263c-.102-.307-.337-.483-.644-.483h-.044c-.234 0-.468.059-.703.117-1.054.22-1.873.673-2.825 1.156a.61.61 0 0 1-.088-.337 1.84 1.84 0 0 1 .058-.395c.103-.512.337-1.346.337-2.064v-.907c-.044-.673-.234-1.303-.615-1.859-.468-.703-1.142-1.068-1.844-1.068-.439 0-.907.146-1.346.439-.585.395-1.025.907-1.434 1.478-.717.995-1.507 2.649-2.005 3.761-1.2 2.781-2.064 5.664-2.839 8.576l-.263.863c-.059-.293-.088-.556-.088-.82l.015-.278.776-7.567.454-3.556.015-.19c0-.571-.307-.937-.776-1.054-.088-.029-.176-.029-.263-.029-.424 0-.82.249-1.054.703-.22.424-.337.893-.439 1.361-.659 2.956-.907 5.971-1.039 8.972l-.117 5.313a97.16 97.16 0 0 0 .22 6.513c.22 3.205.6 6.41 1.332 9.542l.381 1.478c.161.498.541.79 1.054.834h.117z"/><path d="M43.868 27.586l.015-.351v-.176c0-1.361 1.156-3.717 2.254-4.42.044.146.088.307.088.483v.176c0 1.361-1.098 3.425-2.356 4.288zm2.02 6.718c.746-.044 1.493-.38 2.166-.98.483-.439.893-.966 1.215-1.537.981-1.683 1.771-3.454 2.283-5.327.088-.351.161-.703.205-1.054v-.146c-.015-.234-.132-.424-.41-.468h-.088c-.22.015-.337.19-.41.41l-.073.263c-.571 1.917-1.332 3.513-2.532 5.108-.322.424-.673.834-1.127 1.142-.337.234-.659.366-.981.381h-.088c-.395 0-.776-.19-1.171-.585-.717-.732-.995-1.668-1.098-2.664.117.015.234.015.337.015h.132c.732-.044 1.039-.454 1.522-.966.805-.834 1.449-1.756 1.903-2.81.307-.703.527-1.42.527-2.166 0-.088-.015-.176-.015-.264-.015-.176-.029-.351-.073-.527-.161-.849-.556-1.61-1.434-1.903a1.81 1.81 0 0 0-.615-.102h-.102c-.585.029-1.098.366-1.537.82-.307.307-.6.673-.849 1.024-.41.571-.703 1.185-.98 1.8-.688 1.551-1.054 3.147-1.054 4.815l.015.673c.102 1.508.6 2.869 1.698 3.952.732.732 1.581 1.098 2.444 1.098h.19zm13.68 10.186c.864 0 1.712-.176 2.547-.483 2.576-.995 4.508-2.781 5.971-5.152.951-1.566 1.683-3.22 2.342-4.932 1.859-4.903 3.103-9.952 3.893-15.148.322-2.078.541-4.157.541-6.264 0-.849-.029-1.712-.117-2.576-.19-1.756-.541-3.454-1.259-5.049-1.303-2.912-3.63-4.522-6.44-4.522a7.75 7.75 0 0 0-1.888.234c-2.869.673-5.21 2.298-7.186 4.508-1.317 1.478-2.312 3.161-2.839 5.137-.117.395-.176.79-.176 1.185 0 .19.015.38.044.571.146.746.673 1.229 1.303 1.229l.146-.015c.673-.059.995-.468 1.083-1.347.117-1.229.688-2.254 1.332-3.249l.176.044-.146 1.259-.483 4.274c-.307 3.498-.425 6.996-.425 10.494l.029 3.352c.073 3.205.337 6.396.805 9.572.117.805.234 1.61.498 2.371.219.659.585.966 1.068.966.512 0 .863-.293 1.039-.761.146-.41.41-.805.41-1.259a1.17 1.17 0 0 0-.176-.585c-.102-.161-.249-.307-.424-.322-.498-.073-.6-.439-.644-.863-.249-2.444-.483-4.903-.527-7.362l-.015-2.093c0-6.308.6-12.543 1.917-18.733.263-1.244.615-2.459.659-3.747.015-.322.19-.439.41-.571.849-.498 1.756-.907 2.722-1.127.41-.088.805-.132 1.186-.132 1.654 0 2.986.878 3.849 2.561.307.6.556 1.244.732 1.903.439 1.595.659 3.22.703 4.888l.015.863c0 4.127-.673 8.181-1.566 12.191-.732 3.381-1.712 6.674-3.147 9.835-.878 1.888-1.99 3.615-3.571 4.961-1.244 1.068-2.62 1.888-4.259 2.02l-.41.015c-1.551 0-2.561-.805-2.942-2.386-.088-.38-.132-.79-.205-1.185-.117-.585-.322-.82-.717-.82h-.073c-.468.029-.673.351-.673 1.01a7.08 7.08 0 0 0 .249 1.668c.512 2.064 1.961 3.337 4.025 3.542.205.029.41.029.615.029zM77.99 32.416c-.483-.585-.834-1.815-.907-3.103l-.015-.483a8.77 8.77 0 0 1 .132-1.522c.571.732 1.156 1.215 2.078 1.215h.161c-.337 1.405-.776 2.664-1.449 3.893zm1.244-4.742h-.044c-.234 0-.439-.102-.629-.278-.322-.322-.498-.732-.6-1.171-.117-.439-.176-.878-.205-1.317-.015-.132-.015-.278-.015-.41 0-.907.176-1.786.512-2.664a2.78 2.78 0 0 1 .293-.542c.132-.19.263-.293.38-.307.146 0 .278.117.424.351.381.615.571 1.288.615 1.99v.483l.015.498c0 .907-.103 1.8-.234 2.693-.029.249-.029.571-.366.659l-.146.015zm-1.244 7.362c.512-.029 1.039-.263 1.493-.688.351-.337.629-.746.834-1.156a8.19 8.19 0 0 0 .644-1.756c.439-1.844.673-3.703.673-5.576l-.029-1.244a23.27 23.27 0 0 0-.249-2.239c-.146-.79-.424-1.551-1.01-2.151-.41-.424-.907-.644-1.405-.644h-.088c-.351.029-.688.161-1.01.41-.6.498-1.039 1.185-1.727 1.61-.19.102-.263.38-.366.615-.278.585-.468 1.215-.585 1.859-.219 1.054-.307 2.122-.307 3.205l.029 1.098.044.6.059 1.244.058.615c.161 1.068.322 2.122.922 3.059.468.746 1.171 1.142 1.903 1.142h.117zm15.228 1.36c.541 0 1.098-.278 1.507-.82a3.89 3.89 0 0 0 .483-.951c.263-.673.439-1.361.585-2.064.512-2.444.703-4.903.703-7.391v-.527l-.219-5.283c-.044-.351-.044-.717-.264-1.024-.132-.19-.307-.293-.498-.293-.073 0-.132.015-.205.029-.249.073-.337.234-.337.439l.029.205a5.75 5.75 0 0 1 .088.703l.029 1.683c0 2.517-.19 5.02-.6 7.508-.249 1.522-.585 3.03-1.112 4.508-.263-.102-.278-.278-.322-.454a20.6 20.6 0 0 1-.498-2.649c-.176-1.508-.278-3.03-.278-4.537 0-1.376.015-2.415.219-3.791l.029-.366c0-.556-.22-.966-.761-1.083-.088-.015-.059-.015-.22-.015-.454.015-.805.22-1.112.659-.205.293-.732 1.522-.878 1.844l-3.147 7.45c-.132.307-.307.644-.615.878a.68.68 0 0 1-.132-.41l.015-.249.439-4.303 1.083-4.903c.044-.19.073-.351.073-.498 0-.454-.205-.732-.615-.951-.22-.117-.512-.19-.732-.19a1.35 1.35 0 0 0-1.186.688c-.19.322-.322.703-.439 1.068-.922 2.722-1.229 5.532-1.229 8.357l.015 1.273c.015.571.088 1.127.249 1.683.337 1.112 1.186 1.727 2.108 1.727.571 0 1.171-.234 1.683-.761.556-.556.951-1.244 1.259-1.946.439-.951.805-1.932 1.156-2.927.088-.263.103-.585.439-.849l.19 1.537c.132 1.463.41 2.898.761 4.317.161.644.366 1.259.746 1.815.395.571.951.864 1.507.864zm12.523.161a.99.99 0 0 0 .98-.761c.132-.41.176-.82.205-1.244l.498-7.054.161-3.132a20.84 20.84 0 0 0-.117-2.327c-.059-.498-.132-1.01-.352-1.478-.292-.673-.746-1.01-1.332-1.01-.234 0-.497.059-.775.176-.425.176-.776.439-1.113.746-.585.527-1.053 1.142-1.463 1.8-.79 1.273-1.434 2.62-1.947 4.025-.073.176-.058.424-.38.483v-1.8l.176-4.566v-.263c0-.264-.015-.541-.118-.79-.161-.425-.453-.717-.892-.717h-.029c-.468 0-.79.264-.922.717a4 4 0 0 0-.146.703l-.22 3.395.146 5.459.073 2.649-.029 2.371v.044c0 .746.41 1.2 1.054 1.288l.176.015c.615 0 1.098-.395 1.273-1.054a4.88 4.88 0 0 0 .147-.79 36.58 36.58 0 0 1 .585-3.995c.469-2.43 1.391-4.683 2.796-6.718.263-.395.541-.776 1.039-1.054.087.278.102.512.102.732v.293c-.015 2.312-.307 4.596-.468 6.879l-.308 4.464.015.541c.015.424 0 .849.161 1.244.19.483.556.732 1.025.732zm23.589 8.182c.556-.029.981-.41 1.156-1.068.191-.659.293-1.346.395-2.005l.015-.264c-.029-.38-.234-.703-.629-.819-.469-.161-.483-.454-.512-.805l-.293-3.615-.103-3.556.249-5.986c.439-5.225 1.259-10.42 2.327-15.557.586-2.839 1.317-5.635 1.8-8.489.044-.293.088-.585.088-.878 0-.088-.014-.161-.014-.249v-.132c-.044-.512-.337-.82-.805-.951a.83.83 0 0 0-.264-.044h-.088c-.322.015-.6.19-.819.483-.147.205-.249.41-.351.629a51.08 51.08 0 0 0-1.801 4.2c-1.785 4.742-3.205 9.615-4.42 14.548-.907 3.703-1.8 7.406-3.146 10.991-.659 1.771-1.347 3.527-2.342 5.137-.19.351-.366.732-.717.951-.278-.117-.249-.351-.293-.556-.409-1.83-.644-3.688-.746-5.547-.044-.761-.059-1.522-.059-2.283 0-.6.015-1.185.03-1.785.131-4.332.761-8.606 1.668-12.835.717-3.366 1.61-6.688 2.152-10.069.043-.278.087-.556.087-.834v-.132c-.014-.527-.307-.878-.746-1.024a1.69 1.69 0 0 0-.381-.044c-.336.015-.658.19-.878.512-.234.322-.336.688-.439 1.068-.995 4.098-1.976 8.167-2.649 12.323-.761 4.742-1.171 9.484-1.171 14.27 0 .966.03 1.932.074 2.898a31.81 31.81 0 0 0 .439 3.893c.146.863.365 1.756.907 2.488.468.629 1.083.951 1.771.951h.088c.307-.015.614-.102.922-.234.614-.307 1.068-.746 1.493-1.273.878-1.068 1.522-2.283 2.078-3.542 1.156-2.664 1.946-5.444 2.605-8.269.922-3.951 1.61-7.947 2.605-11.899.102-.395.132-.834.424-1.171-.014.498-.087.995-.161 1.478-.834 5.737-1.361 11.489-1.492 17.299l-.059 3.63a75.11 75.11 0 0 0 .088 3.644l.102 1.493c.044.717.161 1.42.425 2.093.234.585.644.937 1.288.937h.102zm10.812-8.182a.99.99 0 0 0 .981-.761c.132-.41.176-.82.205-1.244l.497-7.054.161-3.132c0-.776-.029-1.551-.117-2.327-.058-.498-.131-1.01-.351-1.478-.293-.673-.746-1.01-1.332-1.01-.234 0-.497.059-.775.176-.425.176-.776.439-1.113.746-.585.527-1.053 1.142-1.463 1.8a21.72 21.72 0 0 0-1.947 4.025c-.073.176-.058.424-.38.483v-1.8l.175-4.566v-.263c0-.264-.014-.541-.117-.79-.161-.425-.453-.717-.892-.717h-.03c-.468 0-.79.264-.922.717a3.99 3.99 0 0 0-.146.703l-.22 3.395.147 5.459.073 2.649-.029 2.371v.044c0 .746.409 1.2 1.053 1.288l.176.015c.615 0 1.098-.395 1.273-1.054a5.12 5.12 0 0 0 .147-.79 36.58 36.58 0 0 1 .585-3.995c.468-2.43 1.39-4.683 2.795-6.718.264-.395.542-.776 1.04-1.054.087.278.102.512.102.732v.293c-.015 2.312-.307 4.596-.468 6.879l-.308 4.464.015.541c.015.424 0 .849.161 1.244.19.483.556.732 1.024.732zm5.588-6.849c.191-2.064.513-4.025 1.683-5.752l.279-.351c.117-.117.248-.205.395-.205h.044c.058 0 .117.029.19.058.161.102.219.22.219.337v.044c0 .073-.029.146-.073.234l-.249.659-1.931 4.215c-.118.263-.176.585-.557.761zm8.504 8.913c.439-.073.775-.337.878-.776.073-.278.117-.556.117-.82-.015-.337-.117-.659-.425-.922-.263-.22-.322-.498-.38-.79l-.205-1.405c-.293-2.078-.454-4.142-.512-6.205l-.03-1.581a54.68 54.68 0 0 1 .791-9.25c.468-2.678.995-5.342 2.195-7.83.351-.732.615-1.537.893-2.327a13.6 13.6 0 0 0 .468-1.625 1.43 1.43 0 0 0 .044-.337v-.117a1.16 1.16 0 0 0-.659-1.083 1.36 1.36 0 0 0-.585-.132c-.38.015-.761.205-1.083.585-.293.351-.483.746-.688 1.142-.702 1.478-1.273 2.986-1.58 4.566-.542 2.795-1.566 5.43-2.591 8.079l-.995 2.678c-.117.278-.161.585-.41.82-.073-.029-.161-.029-.234-.044-.483-.249-.951-.337-1.376-.337-.893.029-1.624.527-2.151 1.127-.717.776-1.215 1.683-1.625 2.664-.629 1.537-.922 3.147-1.083 4.786l-.073 1.449v.22a8.24 8.24 0 0 0 .132 1.185c.175.893.556 1.654 1.507 1.947.205.044.395.073.571.073.644-.029 1.171-.424 1.654-.922.527-.571.922-1.215 1.317-1.903.849-1.508 1.522-3.103 2.137-4.727.102-.263.146-.585.439-.746.41-.22.541-.556.541-.937v-.058l-.029-.322a1.25 1.25 0 0 1-.029-.234v-.058c0-.337.131-.659.41-1.054l.014.541a1.01 1.01 0 0 1 .015.205c0 .073 0 .132-.015.205l-.014 1.42.014 1.405.19 3.439c.161 2.093.483 4.142.952 6.176.102.468.219.937.497 1.346.205.293.483.483.835.483h.161zm4.187-11.035l.015-.351v-.176c0-1.361 1.156-3.717 2.254-4.42.044.146.088.307.088.483v.176c0 1.361-1.098 3.425-2.357 4.288zm2.02 6.718c.746-.044 1.493-.38 2.166-.98.483-.439.893-.966 1.215-1.537.98-1.683 1.771-3.454 2.283-5.327.088-.351.161-.703.205-1.054v-.146c-.015-.234-.132-.424-.41-.468h-.088c-.219.015-.336.19-.41.41l-.073.263c-.57 1.917-1.332 3.513-2.532 5.108-.322.424-.673.834-1.127 1.142-.336.234-.658.366-.98.381h-.088c-.395 0-.776-.19-1.171-.585-.717-.732-.995-1.668-1.097-2.664.117.015.234.015.336.015h.132c.732-.044 1.039-.454 1.522-.966.805-.834 1.449-1.756 1.903-2.81.307-.703.526-1.42.526-2.166 0-.088-.014-.176-.014-.264-.015-.176-.029-.351-.073-.527-.161-.849-.557-1.61-1.435-1.903a1.8 1.8 0 0 0-.614-.102h-.103c-.585.029-1.097.366-1.536.82a7.96 7.96 0 0 0-.849 1.024c-.41.571-.703 1.185-.981 1.8-.688 1.551-1.054 3.147-1.054 4.815l.015.673c.102 1.508.6 2.869 1.698 3.952.731.732 1.58 1.098 2.444 1.098h.19z"/><path d="M166.951 36.499c.643 0 1.258-.512 1.419-1.171.044-.146.044-.293.059-.439l.307-3.308c.176-2.195.483-4.376 1.229-6.469.337-.966.732-1.888 1.347-2.708.234-.322.38-.483.527-.483s.292.161.527.454c.263.322.468.688.717 1.039.131.19.263.395.439.541.175.161.366.234.556.234.176 0 .351-.059.512-.176.264-.161.41-.41.41-.688a.82.82 0 0 0-.044-.249c-.395-1.039-.805-2.064-1.668-2.825-.469-.424-.981-.644-1.493-.644-.527 0-1.054.234-1.552.688-.629.571-1.068 1.273-1.463 2.02-.527.966-.893 2.005-1.317 3.03l-.191-.015.132-2.737.132-2.62-.015-.776c-.029-.585-.409-.951-.951-1.01l-.132-.015c-.468 0-.878.278-1.053.761-.088.249-.147.512-.191.776a36.66 36.66 0 0 0-.351 4.727v.337c0 2.839.351 5.679.571 8.503l.175 1.961c.088.732.63 1.229 1.288 1.259h.074z"/></svg>