<svg xmlns="http://www.w3.org/2000/svg" width="32" height="32" fill="none" xmlns:v="https://vecta.io/nano"><g clip-path="url(#B)"><mask id="A" maskUnits="userSpaceOnUse" x="0" y="0" width="32" height="32" mask-type="alpha"><path d="M32 0H0V32H32V0Z" fill="#d9d9d9"/></mask><g mask="url(#A)"><path d="M5.333 24c-.378 0-.694-.128-.949-.384S4 23.044 4 22.667s.128-.694.384-.949.572-.384.949-.384h21.333c.378 0 .694.128.949.384s.384.572.384.949-.128.694-.384.949-.572.384-.949.384H5.333zm0-6.667c-.378 0-.694-.128-.949-.384S4 16.378 4 16a1.29 1.29 0 0 1 .384-.951 1.29 1.29 0 0 1 .949-.383h21.333A1.29 1.29 0 0 1 28 16c0 .378-.128.694-.384.949s-.572.384-.949.384H5.333zm0-6.667c-.378 0-.694-.128-.949-.383A1.29 1.29 0 0 1 4 9.333a1.29 1.29 0 0 1 .384-.951c.255-.255.572-.383.949-.383h21.333c.378 0 .694.128.949.383a1.29 1.29 0 0 1 .384.951 1.29 1.29 0 0 1-.384.951c-.255.255-.572.383-.949.383H5.333z" fill="#faf2e0"/></g></g><defs><clipPath id="B"><path fill="#fff" d="M0 0h32v32H0z"/></clipPath></defs></svg>